<svg width="255" height="276" viewBox="0 0 255 276" fill="none" xmlns="http://www.w3.org/2000/svg">
<path d="M64.8052 8.8838C64.8052 22.5633 77.6767 35.9176 92.6412 57.4486H163.12C178.858 33.2188 191.065 20.3589 191.548 8.8838C191.548 4.03941 182.301 2.3714 163.12 0C151.441 6.01971 144.843 8.8838 131.138 8.8838C117.01 8.12089 109.539 6.40002 97.3792 0C69.0391 2.82418 64.7352 4.88614 64.8052 8.8838Z" fill="#403E40"/>
<path d="M121.601 106.912H134.274V122.531C145.713 122.531 150.342 123.606 157.555 127.836L153.022 142.406C128.867 133.137 118.015 137.044 115.707 144.928C109.748 165.294 147.158 159.748 157.555 181.065C165.716 197.797 161.1 216.453 134.274 225.381V242.179H120.326V225.381C106.647 225.115 100.372 222.739 93.2072 218.184L97.8231 203.279C113.017 212.414 136.82 211.827 139.751 203.279C142.682 194.73 141.29 187.219 121.601 179.911C102.863 172.955 90.7097 161.606 94.7458 144.928C97.8231 132.213 103.395 127.383 121.601 122.531V106.912Z" fill="white"/>
<path fill-rule="evenodd" clip-rule="evenodd" d="M92.6412 77.5852H163.12C253.89 160.299 288.32 242.179 212.277 270.068C190.3 278.127 65.7328 277.321 44.0765 270.068C-39.1903 242.179 5.99833 144.928 92.6412 77.5852ZM134.274 106.912H121.601V122.531C103.395 127.383 97.8231 132.213 94.7458 144.928C90.7097 161.606 102.863 172.955 121.601 179.911C141.29 187.219 142.682 194.73 139.751 203.279C136.82 211.827 113.017 212.414 97.8231 203.279L93.2072 218.184C100.372 222.739 106.647 225.115 120.326 225.381V242.179H134.274V225.381C161.1 216.453 165.716 197.797 157.555 181.065C147.158 159.748 109.748 165.294 115.707 144.928C118.015 137.044 128.867 133.137 153.022 142.406L157.555 127.836C150.342 123.606 145.713 122.531 134.274 122.531V106.912Z" fill="#403E40"/>
</svg>
